<svg data-v-423bf9ae="" xmlns="http://www.w3.org/2000/svg" viewBox="0 0 444 90" class="iconLeft"><!----><!----><!----><g data-v-423bf9ae="" id="ee0f691e-42da-4567-96ec-8d3a7c08a910" fill="#000000" transform="matrix(4.909983142910657,0,0,4.909983142910657,105.64267911501739,-3.7561350397233895)"><path d="M7.17 11.17L6.33 11.02C6.19 12.03 5.33 12.87 4.03 12.87C2.88 12.87 1.44 12.15 1.44 9.94C1.44 8.05 2.65 7.13 4.02 7.13C5.61 7.13 6.15 8.22 6.27 9.06L7.13 8.90C6.96 7.39 5.85 6.33 4.03 6.33C2.10 6.33 0.56 7.67 0.56 9.97C0.56 12.29 1.96 13.66 3.98 13.66C5.78 13.66 6.93 12.60 7.17 11.17ZM9.59 13.50L9.59 9.95C9.59 9.14 9.67 8.60 9.93 8.15C10.19 7.67 10.74 7.13 11.58 7.13C11.82 7.13 12.07 7.17 12.28 7.22L12.45 6.43C12.21 6.36 11.90 6.30 11.65 6.30C10.49 6.30 9.77 7.11 9.59 7.94L9.59 6.51L8.75 6.51L8.75 13.50ZM19.50 13.48L19.42 12.78C19.29 12.81 19.15 12.82 18.98 12.82C18.76 12.82 18.59 12.74 18.48 12.53C18.38 12.36 18.37 12.05 18.37 11.69L18.37 9.30C18.37 8.72 18.37 8.22 18.23 7.76C17.95 6.78 17.15 6.33 15.81 6.33C13.85 6.33 12.87 7.22 12.87 8.83L13.68 8.88C13.73 7.29 14.78 7.13 15.75 7.13C16.81 7.13 17.19 7.60 17.37 7.98C17.47 8.20 17.54 8.71 17.54 9.20L17.54 9.49L16.72 9.49C15.04 9.49 14.08 9.69 13.50 10.01C12.91 10.33 12.59 10.88 12.59 11.62C12.59 12.84 13.47 13.66 15.08 13.66C16.10 13.66 17.15 13.27 17.58 12.36C17.64 13.06 17.88 13.58 18.79 13.58C19.00 13.58 19.29 13.55 19.50 13.48ZM17.54 10.18L17.54 10.89C17.54 11.17 17.47 11.61 17.30 11.91C17.05 12.35 16.37 12.92 15.20 12.92C14.32 12.92 13.43 12.57 13.43 11.56C13.43 11.00 13.76 10.63 14.25 10.46C14.77 10.28 15.60 10.18 16.73 10.18ZM22.62 13.50C24.11 8.97 24.35 8.27 24.58 7.46C24.79 8.26 25.03 8.92 26.53 13.50L27.47 13.50L29.61 6.51L28.69 6.51C27.34 10.96 27.15 11.66 26.94 12.42C26.73 11.63 26.52 10.99 25.05 6.51L24.14 6.51C22.68 10.96 22.48 11.55 22.26 12.43C22.01 11.54 21.84 10.96 20.50 6.51L19.54 6.51L21.69 13.50ZM31.74 13.50L31.74 3.82L30.90 3.82L30.90 13.50ZM40.11 16.03L40.11 6.51L39.26 6.51L39.26 7.76C38.86 6.71 37.83 6.33 36.72 6.33C34.94 6.33 33.42 7.64 33.42 9.98C33.42 12.35 34.76 13.66 36.58 13.66C38.04 13.66 38.86 12.91 39.26 12.05L39.26 16.03ZM39.27 10.04C39.27 11.73 38.23 12.89 36.78 12.89C35.31 12.89 34.30 11.80 34.30 9.95C34.30 7.98 35.56 7.10 36.83 7.10C38.32 7.10 39.27 8.06 39.27 10.04ZM48.17 13.50L48.17 6.51L47.33 6.51L47.33 10.23C47.33 10.89 47.24 11.41 46.96 11.86C46.68 12.31 46.02 12.85 45.08 12.85C44.35 12.85 43.90 12.63 43.61 12.32C43.33 12.01 43.15 11.47 43.15 10.54L43.15 6.51L42.28 6.51L42.28 10.65C42.28 11.69 42.46 12.36 42.77 12.78C43.16 13.33 43.85 13.66 44.79 13.66C46.05 13.66 46.98 13.02 47.33 12.14L47.33 13.50ZM56.48 11.38L55.65 11.20C55.40 12.15 54.56 12.88 53.30 12.88C52.26 12.88 50.78 12.32 50.76 10.19L56.50 10.19C56.50 7.62 55.29 6.33 53.23 6.33C51.37 6.33 49.87 7.71 49.87 9.97C49.87 12.19 51.10 13.66 53.27 13.66C54.98 13.66 56.14 12.71 56.48 11.38ZM50.76 9.51C50.90 7.91 51.97 7.11 53.21 7.11C54.88 7.11 55.51 8.19 55.61 9.51ZM58.97 13.50L58.97 9.95C58.97 9.14 59.05 8.60 59.30 8.15C59.57 7.67 60.12 7.13 60.96 7.13C61.19 7.13 61.45 7.17 61.66 7.22L61.82 6.43C61.59 6.36 61.28 6.30 61.03 6.30C59.86 6.30 59.15 7.11 58.97 7.94L58.97 6.51L58.13 6.51L58.13 13.50ZM62.44 15.90C62.64 15.97 63.06 16.04 63.36 16.04C64.12 16.04 64.75 15.85 65.24 15.05C65.62 14.45 65.91 13.68 66.12 13.17L68.84 6.51L67.91 6.51C66.16 10.88 65.88 11.59 65.62 12.32C65.37 11.68 65.13 11.09 63.14 6.51L62.17 6.51L65.14 13.27L64.97 13.65C64.78 14.11 64.51 14.62 64.34 14.83C64.15 15.09 63.84 15.26 63.39 15.26C63.18 15.26 62.83 15.20 62.61 15.12Z"></path></g><defs data-v-423bf9ae=""><linearGradient data-v-423bf9ae="" gradientTransform="rotate(25)" id="eba1cd0e-0435-4419-8396-cbe0c18ed3a8" x1="0%" y1="0%" x2="100%" y2="0%"><stop data-v-423bf9ae="" offset="0%" style="stop-color: rgb(57, 94, 202); stop-opacity: 1;"></stop><stop data-v-423bf9ae="" offset="100%" style="stop-color: rgb(132, 139, 216); stop-opacity: 1;"></stop></linearGradient></defs><g data-v-423bf9ae="" id="c14face6-2831-4675-be24-8d39d0a3bf10" transform="matrix(1.1024275783335629,0,0,1.1024275783335629,-4.699056236472153,-4.428352100160353)" stroke="none" fill="url(#eba1cd0e-0435-4419-8396-cbe0c18ed3a8)"><path d="M82.263 7.008c-3.768-3.768-9.878-3.768-13.647 0-3.377 3.377-3.725 8.633-1.05 12.4L56.107 30.867a12.471 12.471 0 00-7.142-2.238c-2.873 0-5.522.972-7.639 2.602l-8.049-8.049a7.445 7.445 0 00-11.676-9.054 7.445 7.445 0 009.08 11.66l8.088 8.088a12.472 12.472 0 00-2.255 5.796H24.047c-.827-4.489-4.759-7.891-9.487-7.89a9.65 9.65 0 00-9.65 9.65c0 5.329 4.32 9.65 9.65 9.65 4.672 0 8.569-3.321 9.458-7.731h12.598c.934 5.303 5.211 9.467 10.569 10.232v13.092c-4.511.809-7.935 4.751-7.935 9.495 0 5.329 4.32 9.65 9.65 9.65 5.329 0 9.65-4.32 9.65-9.65 0-4.657-3.299-8.542-7.686-9.449V53.566c6.018-.917 10.643-6.127 10.643-12.397 0-2.939-1.016-5.644-2.715-7.784L70.225 21.95c3.736 2.405 8.768 1.974 12.038-1.296a9.648 9.648 0 000-13.646zM48.966 49.913c-4.821 0-8.744-3.922-8.744-8.744 0-4.821 3.922-8.744 8.744-8.744s8.744 3.922 8.744 8.744c-.001 4.821-3.923 8.744-8.744 8.744z"></path></g><!----></svg>